<svg xmlns="http://www.w3.org/2000/svg" id="qr-reactcontent" height="298" width="298" style="background: rgb(40, 42, 54);"><rect x="37.328289559012966" y="36.490789463645534" width="6.745394731822767" height="6.745394731822767" fill="#bd93f9" style="shape-rendering: crispedges;"/><rect x="44.07368429083573" y="36.490789463645534" width="6.745394731822767" height="6.745394731822767" fill="#bd93f9" style="shape-rendering: crispedges;"/><rect x="50.8190790226585" y="36.490789463645534" width="6.745394731822767" height="6.745394731822767" fill="#bd93f9" style="shape-rendering: crispedges;"/><rect x="57.56447375448127" y="36.490789463645534" width="6.745394731822767" height="6.745394731822767" fill="#bd93f9" style="shape-rendering: crispedges;"/><rect x="64.30986848630404" y="36.490789463645534" width="6.745394731822767" height="6.745394731822767" fill="#bd93f9" style="shape-rendering: crispedges;"/><rect x="71.05526321812681" y="36.490789463645534" width="6.745394731822767" height="6.745394731822767" fill="#bd93f9" style="shape-rendering: crispedges;"/><rect x="77.80065794994958" y="36.490789463645534" width="6.745394731822767" height="6.745394731822767" fill="#bd93f9" style="shape-rendering: crispedges;"/><rect x="91.29144741359512" y="36.490789463645534" width="6.745394731822767" height="6.745394731822767" fill="#bd93f9" style="shape-rendering: crispedges;"/><rect x="98.03684214541789" y="36.490789463645534" width="6.745394731822767" height="6.745394731822767" fill="#bd93f9" style="shape-rendering: crispedges;"/><rect x="111.52763160906343" y="36.490789463645534" width="6.745394731822767" height="6.745394731822767" fill="#bd93f9" style="shape-rendering: crispedges;"/><rect x="118.2730263408862" y="36.490789463645534" width="6.745394731822767" height="6.745394731822767" fill="#bd93f9" style="shape-rendering: crispedges;"/><rect x="125.01842107270897" y="36.490789463645534" width="6.745394731822767" height="6.745394731822767" fill="#bd93f9" style="shape-rendering: crispedges;"/><rect x="145.25460526817724" y="36.490789463645534" width="6.745394731822767" height="6.745394731822767" fill="#bd93f9" style="shape-rendering: crispedges;"/><rect x="165.4907894636455" y="36.490789463645534" width="6.745394731822767" height="6.745394731822767" fill="#bd93f9" style="shape-rendering: crispedges;"/><rect x="172.23618419546827" y="36.490789463645534" width="6.745394731822767" height="6.745394731822767" fill="#bd93f9" style="shape-rendering: crispedges;"/><rect x="178.98157892729103" y="36.490789463645534" width="6.745394731822767" height="6.745394731822767" fill="#bd93f9" style="shape-rendering: crispedges;"/><rect x="192.47236839093654" y="36.490789463645534" width="6.745394731822767" height="6.745394731822767" fill="#bd93f9" style="shape-rendering: crispedges;"/><rect x="212.7085525864048" y="36.490789463645534" width="6.745394731822767" height="6.745394731822767" fill="#bd93f9" style="shape-rendering: crispedges;"/><rect x="219.45394731822756" y="36.490789463645534" width="6.745394731822767" height="6.745394731822767" fill="#bd93f9" style="shape-rendering: crispedges;"/><rect x="226.19934205005032" y="36.490789463645534" width="6.745394731822767" height="6.745394731822767" fill="#bd93f9" style="shape-rendering: crispedges;"/><rect x="232.94473678187308" y="36.490789463645534" width="6.745394731822767" height="6.745394731822767" fill="#bd93f9" style="shape-rendering: crispedges;"/><rect x="239.69013151369583" y="36.490789463645534" width="6.745394731822767" height="6.745394731822767" fill="#bd93f9" style="shape-rendering: crispedges;"/><rect x="246.4355262455186" y="36.490789463645534" width="6.745394731822767" height="6.745394731822767" fill="#bd93f9" style="shape-rendering: crispedges;"/><rect x="253.18092097734134" y="36.490789463645534" width="6.745394731822767" height="6.745394731822767" fill="#bd93f9" style="shape-rendering: crispedges;"/><rect x="37.328289559012966" y="43.2361841954683" width="6.745394731822767" height="6.745394731822767" fill="#bd93f9" style="shape-rendering: crispedges;"/><rect x="77.80065794994958" y="43.2361841954683" width="6.745394731822767" height="6.745394731822767" fill="#bd93f9" style="shape-rendering: crispedges;"/><rect x="91.29144741359512" y="43.2361841954683" width="6.745394731822767" height="6.745394731822767" fill="#bd93f9" style="shape-rendering: crispedges;"/><rect x="125.01842107270897" y="43.2361841954683" width="6.745394731822767" height="6.745394731822767" fill="#bd93f9" style="shape-rendering: crispedges;"/><rect x="145.25460526817724" y="43.2361841954683" width="6.745394731822767" height="6.745394731822767" fill="#bd93f9" style="shape-rendering: crispedges;"/><rect x="158.74539473182276" y="43.2361841954683" width="6.745394731822767" height="6.745394731822767" fill="#bd93f9" style="shape-rendering: crispedges;"/><rect x="178.98157892729103" y="43.2361841954683" width="6.745394731822767" height="6.745394731822767" fill="#bd93f9" style="shape-rendering: crispedges;"/><rect x="192.47236839093654" y="43.2361841954683" width="6.745394731822767" height="6.745394731822767" fill="#bd93f9" style="shape-rendering: crispedges;"/><rect x="199.2177631227593" y="43.2361841954683" width="6.745394731822767" height="6.745394731822767" fill="#bd93f9" style="shape-rendering: crispedges;"/><rect x="212.7085525864048" y="43.2361841954683" width="6.745394731822767" height="6.745394731822767" fill="#bd93f9" style="shape-rendering: crispedges;"/><rect x="253.18092097734134" y="43.2361841954683" width="6.745394731822767" height="6.745394731822767" fill="#bd93f9" style="shape-rendering: crispedges;"/><rect x="37.328289559012966" y="49.98157892729107" width="6.745394731822767" height="6.745394731822767" fill="#bd93f9" style="shape-rendering: crispedges;"/><rect x="50.8190790226585" y="49.98157892729107" width="6.745394731822767" height="6.745394731822767" fill="#bd93f9" style="shape-rendering: crispedges;"/><rect x="57.56447375448127" y="49.98157892729107" width="6.745394731822767" height="6.745394731822767" fill="#bd93f9" style="shape-rendering: crispedges;"/><rect x="64.30986848630404" y="49.98157892729107" width="6.745394731822767" height="6.745394731822767" fill="#bd93f9" style="shape-rendering: crispedges;"/><rect x="77.80065794994958" y="49.98157892729107" width="6.745394731822767" height="6.745394731822767" fill="#bd93f9" style="shape-rendering: crispedges;"/><rect x="98.03684214541789" y="49.98157892729107" width="6.745394731822767" height="6.745394731822767" fill="#bd93f9" style="shape-rendering: crispedges;"/><rect x="104.78223687724066" y="49.98157892729107" width="6.745394731822767" height="6.745394731822767" fill="#bd93f9" style="shape-rendering: crispedges;"/><rect x="111.52763160906343" y="49.98157892729107" width="6.745394731822767" height="6.745394731822767" fill="#bd93f9" style="shape-rendering: crispedges;"/><rect x="172.23618419546827" y="49.98157892729107" width="6.745394731822767" height="6.745394731822767" fill="#bd93f9" style="shape-rendering: crispedges;"/><rect x="199.2177631227593" y="49.98157892729107" width="6.745394731822767" height="6.745394731822767" fill="#bd93f9" style="shape-rendering: crispedges;"/><rect x="212.7085525864048" y="49.98157892729107" width="6.745394731822767" height="6.745394731822767" fill="#bd93f9" style="shape-rendering: crispedges;"/><rect x="226.19934205005032" y="49.98157892729107" width="6.745394731822767" height="6.745394731822767" fill="#bd93f9" style="shape-rendering: crispedges;"/><rect x="232.94473678187308" y="49.98157892729107" width="6.745394731822767" height="6.745394731822767" fill="#bd93f9" style="shape-rendering: crispedges;"/><rect x="239.69013151369583" y="49.98157892729107" width="6.745394731822767" height="6.745394731822767" fill="#bd93f9" style="shape-rendering: crispedges;"/><rect x="253.18092097734134" y="49.98157892729107" width="6.745394731822767" height="6.745394731822767" fill="#bd93f9" style="shape-rendering: crispedges;"/><rect x="37.328289559012966" y="56.72697365911384" width="6.745394731822767" height="6.745394731822767" fill="#bd93f9" style="shape-rendering: crispedges;"/><rect x="50.8190790226585" y="56.72697365911384" width="6.745394731822767" height="6.745394731822767" fill="#bd93f9" style="shape-rendering: crispedges;"/><rect x="57.56447375448127" y="56.72697365911384" width="6.745394731822767" height="6.745394731822767" fill="#bd93f9" style="shape-rendering: crispedges;"/><rect x="64.30986848630404" y="56.72697365911384" width="6.745394731822767" height="6.745394731822767" fill="#bd93f9" style="shape-rendering: crispedges;"/><rect x="77.80065794994958" y="56.72697365911384" width="6.745394731822767" height="6.745394731822767" fill="#bd93f9" style="shape-rendering: crispedges;"/><rect x="91.29144741359512" y="56.72697365911384" width="6.745394731822767" height="6.745394731822767" fill="#bd93f9" style="shape-rendering: crispedges;"/><rect x="104.78223687724066" y="56.72697365911384" width="6.745394731822767" height="6.745394731822767" fill="#bd93f9" style="shape-rendering: crispedges;"/><rect x="118.2730263408862" y="56.72697365911384" width="6.745394731822767" height="6.745394731822767" fill="#bd93f9" style="shape-rendering: crispedges;"/><rect x="131.76381580453173" y="56.72697365911384" width="6.745394731822767" height="6.745394731822767" fill="#bd93f9" style="shape-rendering: crispedges;"/><rect x="152" y="56.72697365911384" width="6.745394731822767" height="6.745394731822767" fill="#bd93f9" style="shape-rendering: crispedges;"/><rect x="165.4907894636455" y="56.72697365911384" width="6.745394731822767" height="6.745394731822767" fill="#bd93f9" style="shape-rendering: crispedges;"/><rect x="172.23618419546827" y="56.72697365911384" width="6.745394731822767" height="6.745394731822767" fill="#bd93f9" style="shape-rendering: crispedges;"/><rect x="185.72697365911378" y="56.72697365911384" width="6.745394731822767" height="6.745394731822767" fill="#bd93f9" style="shape-rendering: crispedges;"/><rect x="212.7085525864048" y="56.72697365911384" width="6.745394731822767" height="6.745394731822767" fill="#bd93f9" style="shape-rendering: crispedges;"/><rect x="226.19934205005032" y="56.72697365911384" width="6.745394731822767" height="6.745394731822767" fill="#bd93f9" style="shape-rendering: crispedges;"/><rect x="232.94473678187308" y="56.72697365911384" width="6.745394731822767" height="6.745394731822767" fill="#bd93f9" style="shape-rendering: crispedges;"/><rect x="239.69013151369583" y="56.72697365911384" width="6.745394731822767" height="6.745394731822767" fill="#bd93f9" style="shape-rendering: crispedges;"/><rect x="253.18092097734134" y="56.72697365911384" width="6.745394731822767" height="6.745394731822767" fill="#bd93f9" style="shape-rendering: crispedges;"/><rect x="37.328289559012966" y="63.47236839093661" width="6.745394731822767" height="6.745394731822767" fill="#bd93f9" style="shape-rendering: crispedges;"/><rect x="50.8190790226585" y="63.47236839093661" width="6.745394731822767" height="6.745394731822767" fill="#bd93f9" style="shape-rendering: crispedges;"/><rect x="57.56447375448127" y="63.47236839093661" width="6.745394731822767" height="6.745394731822767" fill="#bd93f9" style="shape-rendering: crispedges;"/><rect x="64.30986848630404" y="63.47236839093661" width="6.745394731822767" height="6.745394731822767" fill="#bd93f9" style="shape-rendering: crispedges;"/><rect x="77.80065794994958" y="63.47236839093661" width="6.745394731822767" height="6.745394731822767" fill="#bd93f9" style="shape-rendering: crispedges;"/><rect x="104.78223687724066" y="63.47236839093661" width="6.745394731822767" height="6.745394731822767" fill="#bd93f9" style="shape-rendering: crispedges;"/><rect x="118.2730263408862" y="63.47236839093661" width="6.745394731822767" height="6.745394731822767" fill="#bd93f9" style="shape-rendering: crispedges;"/><rect x="131.76381580453173" y="63.47236839093661" width="6.745394731822767" height="6.745394731822767" fill="#bd93f9" style="shape-rendering: crispedges;"/><rect x="152" y="63.47236839093661" width="6.745394731822767" height="6.745394731822767" fill="#bd93f9" style="shape-rendering: crispedges;"/><rect x="165.4907894636455" y="63.47236839093661" width="6.745394731822767" height="6.745394731822767" fill="#bd93f9" style="shape-rendering: crispedges;"/><rect x="185.72697365911378" y="63.47236839093661" width="6.745394731822767" height="6.745394731822767" fill="#bd93f9" style="shape-rendering: crispedges;"/><rect x="199.2177631227593" y="63.47236839093661" width="6.745394731822767" height="6.745394731822767" fill="#bd93f9" style="shape-rendering: crispedges;"/><rect x="212.7085525864048" y="63.47236839093661" width="6.745394731822767" height="6.745394731822767" fill="#bd93f9" style="shape-rendering: crispedges;"/><rect x="226.19934205005032" y="63.47236839093661" width="6.745394731822767" height="6.745394731822767" fill="#bd93f9" style="shape-rendering: crispedges;"/><rect x="232.94473678187308" y="63.47236839093661" width="6.745394731822767" height="6.745394731822767" fill="#bd93f9" style="shape-rendering: crispedges;"/><rect x="239.69013151369583" y="63.47236839093661" width="6.745394731822767" height="6.745394731822767" fill="#bd93f9" style="shape-rendering: crispedges;"/><rect x="253.18092097734134" y="63.47236839093661" width="6.745394731822767" height="6.745394731822767" fill="#bd93f9" style="shape-rendering: crispedges;"/><rect x="37.328289559012966" y="70.21776312275938" width="6.745394731822767" height="6.745394731822767" fill="#bd93f9" style="shape-rendering: crispedges;"/><rect x="77.80065794994958" y="70.21776312275938" width="6.745394731822767" height="6.745394731822767" fill="#bd93f9" style="shape-rendering: crispedges;"/><rect x="98.03684214541789" y="70.21776312275938" width="6.745394731822767" height="6.745394731822767" fill="#bd93f9" style="shape-rendering: crispedges;"/><rect x="118.2730263408862" y="70.21776312275938" width="6.745394731822767" height="6.745394731822767" fill="#bd93f9" style="shape-rendering: crispedges;"/><rect x="131.76381580453173" y="70.21776312275938" width="6.745394731822767" height="6.745394731822767" fill="#bd93f9" style="shape-rendering: crispedges;"/><rect x="152" y="70.21776312275938" width="6.745394731822767" height="6.745394731822767" fill="#bd93f9" style="shape-rendering: crispedges;"/><rect x="165.4907894636455" y="70.21776312275938" width="6.745394731822767" height="6.745394731822767" fill="#bd93f9" style="shape-rendering: crispedges;"/><rect x="178.98157892729103" y="70.21776312275938" width="6.745394731822767" height="6.745394731822767" fill="#bd93f9" style="shape-rendering: crispedges;"/><rect x="185.72697365911378" y="70.21776312275938" width="6.745394731822767" height="6.745394731822767" fill="#bd93f9" style="shape-rendering: crispedges;"/><rect x="199.2177631227593" y="70.21776312275938" width="6.745394731822767" height="6.745394731822767" fill="#bd93f9" style="shape-rendering: crispedges;"/><rect x="212.7085525864048" y="70.21776312275938" width="6.745394731822767" height="6.745394731822767" fill="#bd93f9" style="shape-rendering: crispedges;"/><rect x="253.18092097734134" y="70.21776312275938" width="6.745394731822767" height="6.745394731822767" fill="#bd93f9" style="shape-rendering: crispedges;"/><rect x="37.328289559012966" y="76.96315785458215" width="6.745394731822767" height="6.745394731822767" fill="#bd93f9" style="shape-rendering: crispedges;"/><rect x="44.07368429083573" y="76.96315785458215" width="6.745394731822767" height="6.745394731822767" fill="#bd93f9" style="shape-rendering: crispedges;"/><rect x="50.8190790226585" y="76.96315785458215" width="6.745394731822767" height="6.745394731822767" fill="#bd93f9" style="shape-rendering: crispedges;"/><rect x="57.56447375448127" y="76.96315785458215" width="6.745394731822767" height="6.745394731822767" fill="#bd93f9" style="shape-rendering: crispedges;"/><rect x="64.30986848630404" y="76.96315785458215" width="6.745394731822767" height="6.745394731822767" fill="#bd93f9" style="shape-rendering: crispedges;"/><rect x="71.05526321812681" y="76.96315785458215" width="6.745394731822767" height="6.745394731822767" fill="#bd93f9" style="shape-rendering: crispedges;"/><rect x="77.80065794994958" y="76.96315785458215" width="6.745394731822767" height="6.745394731822767" fill="#bd93f9" style="shape-rendering: crispedges;"/><rect x="91.29144741359512" y="76.96315785458215" width="6.745394731822767" height="6.745394731822767" fill="#bd93f9" style="shape-rendering: crispedges;"/><rect x="104.78223687724066" y="76.96315785458215" width="6.745394731822767" height="6.745394731822767" fill="#bd93f9" style="shape-rendering: crispedges;"/><rect x="118.2730263408862" y="76.96315785458215" width="6.745394731822767" height="6.745394731822767" fill="#bd93f9" style="shape-rendering: crispedges;"/><rect x="131.76381580453173" y="76.96315785458215" width="6.745394731822767" height="6.745394731822767" fill="#bd93f9" style="shape-rendering: crispedges;"/><rect x="145.25460526817724" y="76.96315785458215" width="6.745394731822767" height="6.745394731822767" fill="#bd93f9" style="shape-rendering: crispedges;"/><rect x="158.74539473182276" y="76.96315785458215" width="6.745394731822767" height="6.745394731822767" fill="#bd93f9" style="shape-rendering: crispedges;"/><rect x="172.23618419546827" y="76.96315785458215" width="6.745394731822767" height="6.745394731822767" fill="#bd93f9" style="shape-rendering: crispedges;"/><rect x="185.72697365911378" y="76.96315785458215" width="6.745394731822767" height="6.745394731822767" fill="#bd93f9" style="shape-rendering: crispedges;"/><rect x="199.2177631227593" y="76.96315785458215" width="6.745394731822767" height="6.745394731822767" fill="#bd93f9" style="shape-rendering: crispedges;"/><rect x="212.7085525864048" y="76.96315785458215" width="6.745394731822767" height="6.745394731822767" fill="#bd93f9" style="shape-rendering: crispedges;"/><rect x="219.45394731822756" y="76.96315785458215" width="6.745394731822767" height="6.745394731822767" fill="#bd93f9" style="shape-rendering: crispedges;"/><rect x="226.19934205005032" y="76.96315785458215" width="6.745394731822767" height="6.745394731822767" fill="#bd93f9" style="shape-rendering: crispedges;"/><rect x="232.94473678187308" y="76.96315785458215" width="6.745394731822767" height="6.745394731822767" fill="#bd93f9" style="shape-rendering: crispedges;"/><rect x="239.69013151369583" y="76.96315785458215" width="6.745394731822767" height="6.745394731822767" fill="#bd93f9" style="shape-rendering: crispedges;"/><rect x="246.4355262455186" y="76.96315785458215" width="6.745394731822767" height="6.745394731822767" fill="#bd93f9" style="shape-rendering: crispedges;"/><rect x="253.18092097734134" y="76.96315785458215" width="6.745394731822767" height="6.745394731822767" fill="#bd93f9" style="shape-rendering: crispedges;"/><rect x="91.29144741359512" y="83.70855258640492" width="6.745394731822767" height="6.745394731822767" fill="#bd93f9" style="shape-rendering: crispedges;"/><rect x="98.03684214541789" y="83.70855258640492" width="6.745394731822767" height="6.745394731822767" fill="#bd93f9" style="shape-rendering: crispedges;"/><rect x="152" y="83.70855258640492" width="6.745394731822767" height="6.745394731822767" fill="#bd93f9" style="shape-rendering: crispedges;"/><rect x="165.4907894636455" y="83.70855258640492" width="6.745394731822767" height="6.745394731822767" fill="#bd93f9" style="shape-rendering: crispedges;"/><rect x="172.23618419546827" y="83.70855258640492" width="6.745394731822767" height="6.745394731822767" fill="#bd93f9" style="shape-rendering: crispedges;"/><rect x="192.47236839093654" y="83.70855258640492" width="6.745394731822767" height="6.745394731822767" fill="#bd93f9" style="shape-rendering: crispedges;"/><rect x="199.2177631227593" y="83.70855258640492" width="6.745394731822767" height="6.745394731822767" fill="#bd93f9" style="shape-rendering: crispedges;"/><rect x="37.328289559012966" y="90.45394731822769" width="6.745394731822767" height="6.745394731822767" fill="#bd93f9" style="shape-rendering: crispedges;"/><rect x="50.8190790226585" y="90.45394731822769" width="6.745394731822767" height="6.745394731822767" fill="#bd93f9" style="shape-rendering: crispedges;"/><rect x="57.56447375448127" y="90.45394731822769" width="6.745394731822767" height="6.745394731822767" fill="#bd93f9" style="shape-rendering: crispedges;"/><rect x="71.05526321812681" y="90.45394731822769" width="6.745394731822767" height="6.745394731822767" fill="#bd93f9" style="shape-rendering: crispedges;"/><rect x="77.80065794994958" y="90.45394731822769" width="6.745394731822767" height="6.745394731822767" fill="#bd93f9" style="shape-rendering: crispedges;"/><rect x="84.54605268177235" y="90.45394731822769" width="6.745394731822767" height="6.745394731822767" fill="#bd93f9" style="shape-rendering: crispedges;"/><rect x="98.03684214541789" y="90.45394731822769" width="6.745394731822767" height="6.745394731822767" fill="#bd93f9" style="shape-rendering: crispedges;"/><rect x="111.52763160906343" y="90.45394731822769" width="6.745394731822767" height="6.745394731822767" fill="#bd93f9" style="shape-rendering: crispedges;"/><rect x="131.76381580453173" y="90.45394731822769" width="6.745394731822767" height="6.745394731822767" fill="#bd93f9" style="shape-rendering: crispedges;"/><rect x="138.5092105363545" y="90.45394731822769" width="6.745394731822767" height="6.745394731822767" fill="#bd93f9" style="shape-rendering: crispedges;"/><rect x="145.25460526817724" y="90.45394731822769" width="6.745394731822767" height="6.745394731822767" fill="#bd93f9" style="shape-rendering: crispedges;"/><rect x="152" y="90.45394731822769" width="6.745394731822767" height="6.745394731822767" fill="#bd93f9" style="shape-rendering: crispedges;"/><rect x="158.74539473182276" y="90.45394731822769" width="6.745394731822767" height="6.745394731822767" fill="#bd93f9" style="shape-rendering: crispedges;"/><rect x="165.4907894636455" y="90.45394731822769" width="6.745394731822767" height="6.745394731822767" fill="#bd93f9" style="shape-rendering: crispedges;"/><rect x="178.98157892729103" y="90.45394731822769" width="6.745394731822767" height="6.745394731822767" fill="#bd93f9" style="shape-rendering: crispedges;"/><rect x="185.72697365911378" y="90.45394731822769" width="6.745394731822767" height="6.745394731822767" fill="#bd93f9" style="shape-rendering: crispedges;"/><rect x="199.2177631227593" y="90.45394731822769" width="6.745394731822767" height="6.745394731822767" fill="#bd93f9" style="shape-rendering: crispedges;"/><rect x="212.7085525864048" y="90.45394731822769" width="6.745394731822767" height="6.745394731822767" fill="#bd93f9" style="shape-rendering: crispedges;"/><rect x="232.94473678187308" y="90.45394731822769" width="6.745394731822767" height="6.745394731822767" fill="#bd93f9" style="shape-rendering: crispedges;"/><rect x="246.4355262455186" y="90.45394731822769" width="6.745394731822767" height="6.745394731822767" fill="#bd93f9" style="shape-rendering: crispedges;"/><rect x="253.18092097734134" y="90.45394731822769" width="6.745394731822767" height="6.745394731822767" fill="#bd93f9" style="shape-rendering: crispedges;"/><rect x="50.8190790226585" y="97.19934205005046" width="6.745394731822767" height="6.745394731822767" fill="#bd93f9" style="shape-rendering: crispedges;"/><rect x="71.05526321812681" y="97.19934205005046" width="6.745394731822767" height="6.745394731822767" fill="#bd93f9" style="shape-rendering: crispedges;"/><rect x="118.2730263408862" y="97.19934205005046" width="6.745394731822767" height="6.745394731822767" fill="#bd93f9" style="shape-rendering: crispedges;"/><rect x="165.4907894636455" y="97.19934205005046" width="6.745394731822767" height="6.745394731822767" fill="#bd93f9" style="shape-rendering: crispedges;"/><rect x="172.23618419546827" y="97.19934205005046" width="6.745394731822767" height="6.745394731822767" fill="#bd93f9" style="shape-rendering: crispedges;"/><rect x="178.98157892729103" y="97.19934205005046" width="6.745394731822767" height="6.745394731822767" fill="#bd93f9" style="shape-rendering: crispedges;"/><rect x="192.47236839093654" y="97.19934205005046" width="6.745394731822767" height="6.745394731822767" fill="#bd93f9" style="shape-rendering: crispedges;"/><rect x="212.7085525864048" y="97.19934205005046" width="6.745394731822767" height="6.745394731822767" fill="#bd93f9" style="shape-rendering: crispedges;"/><rect x="219.45394731822756" y="97.19934205005046" width="6.745394731822767" height="6.745394731822767" fill="#bd93f9" style="shape-rendering: crispedges;"/><rect x="232.94473678187308" y="97.19934205005046" width="6.745394731822767" height="6.745394731822767" fill="#bd93f9" style="shape-rendering: crispedges;"/><rect x="239.69013151369583" y="97.19934205005046" width="6.745394731822767" height="6.745394731822767" fill="#bd93f9" style="shape-rendering: crispedges;"/><rect x="253.18092097734134" y="97.19934205005046" width="6.745394731822767" height="6.745394731822767" fill="#bd93f9" style="shape-rendering: crispedges;"/><rect x="37.328289559012966" y="103.94473678187323" width="6.745394731822767" height="6.745394731822767" fill="#bd93f9" style="shape-rendering: crispedges;"/><rect x="44.07368429083573" y="103.94473678187323" width="6.745394731822767" height="6.745394731822767" fill="#bd93f9" style="shape-rendering: crispedges;"/><rect x="57.56447375448127" y="103.94473678187323" width="6.745394731822767" height="6.745394731822767" fill="#bd93f9" style="shape-rendering: crispedges;"/><rect x="77.80065794994958" y="103.94473678187323" width="6.745394731822767" height="6.745394731822767" fill="#bd93f9" style="shape-rendering: crispedges;"/><rect x="84.54605268177235" y="103.94473678187323" width="6.745394731822767" height="6.745394731822767" fill="#bd93f9" style="shape-rendering: crispedges;"/><rect x="91.29144741359512" y="103.94473678187323" width="6.745394731822767" height="6.745394731822767" fill="#bd93f9" style="shape-rendering: crispedges;"/><rect x="131.76381580453173" y="103.94473678187323" width="6.745394731822767" height="6.745394731822767" fill="#bd93f9" style="shape-rendering: crispedges;"/><rect x="145.25460526817724" y="103.94473678187323" width="6.745394731822767" height="6.745394731822767" fill="#bd93f9" style="shape-rendering: crispedges;"/><rect x="152" y="103.94473678187323" width="6.745394731822767" height="6.745394731822767" fill="#bd93f9" style="shape-rendering: crispedges;"/><rect x="185.72697365911378" y="103.94473678187323" width="6.745394731822767" height="6.745394731822767" fill="#bd93f9" style="shape-rendering: crispedges;"/><rect x="192.47236839093654" y="103.94473678187323" width="6.745394731822767" height="6.745394731822767" fill="#bd93f9" style="shape-rendering: crispedges;"/><rect x="212.7085525864048" y="103.94473678187323" width="6.745394731822767" height="6.745394731822767" fill="#bd93f9" style="shape-rendering: crispedges;"/><rect x="219.45394731822756" y="103.94473678187323" width="6.745394731822767" height="6.745394731822767" fill="#bd93f9" style="shape-rendering: crispedges;"/><rect x="226.19934205005032" y="103.94473678187323" width="6.745394731822767" height="6.745394731822767" fill="#bd93f9" style="shape-rendering: crispedges;"/><rect x="232.94473678187308" y="103.94473678187323" width="6.745394731822767" height="6.745394731822767" fill="#bd93f9" style="shape-rendering: crispedges;"/><rect x="246.4355262455186" y="103.94473678187323" width="6.745394731822767" height="6.745394731822767" fill="#bd93f9" style="shape-rendering: crispedges;"/><rect x="253.18092097734134" y="103.94473678187323" width="6.745394731822767" height="6.745394731822767" fill="#bd93f9" style="shape-rendering: crispedges;"/><rect x="44.07368429083573" y="110.690131513696" width="6.745394731822767" height="6.745394731822767" fill="#bd93f9" style="shape-rendering: crispedges;"/><rect x="50.8190790226585" y="110.690131513696" width="6.745394731822767" height="6.745394731822767" fill="#bd93f9" style="shape-rendering: crispedges;"/><rect x="57.56447375448127" y="110.690131513696" width="6.745394731822767" height="6.745394731822767" fill="#bd93f9" style="shape-rendering: crispedges;"/><rect x="64.30986848630404" y="110.690131513696" width="6.745394731822767" height="6.745394731822767" fill="#bd93f9" style="shape-rendering: crispedges;"/><rect x="71.05526321812681" y="110.690131513696" width="6.745394731822767" height="6.745394731822767" fill="#bd93f9" style="shape-rendering: crispedges;"/><rect x="84.54605268177235" y="110.690131513696" width="6.745394731822767" height="6.745394731822767" fill="#bd93f9" style="shape-rendering: crispedges;"/><rect x="111.52763160906343" y="110.690131513696" width="6.745394731822767" height="6.745394731822767" fill="#bd93f9" style="shape-rendering: crispedges;"/><rect x="125.01842107270897" y="110.690131513696" width="6.745394731822767" height="6.745394731822767" fill="#bd93f9" style="shape-rendering: crispedges;"/><rect x="131.76381580453173" y="110.690131513696" width="6.745394731822767" height="6.745394731822767" fill="#bd93f9" style="shape-rendering: crispedges;"/><rect x="158.74539473182276" y="110.690131513696" width="6.745394731822767" height="6.745394731822767" fill="#bd93f9" style="shape-rendering: crispedges;"/><rect x="185.72697365911378" y="110.690131513696" width="6.745394731822767" height="6.745394731822767" fill="#bd93f9" style="shape-rendering: crispedges;"/><rect x="205.96315785458205" y="110.690131513696" width="6.745394731822767" height="6.745394731822767" fill="#bd93f9" style="shape-rendering: crispedges;"/><rect x="212.7085525864048" y="110.690131513696" width="6.745394731822767" height="6.745394731822767" fill="#bd93f9" style="shape-rendering: crispedges;"/><rect x="219.45394731822756" y="110.690131513696" width="6.745394731822767" height="6.745394731822767" fill="#bd93f9" style="shape-rendering: crispedges;"/><rect x="232.94473678187308" y="110.690131513696" width="6.745394731822767" height="6.745394731822767" fill="#bd93f9" style="shape-rendering: crispedges;"/><rect x="246.4355262455186" y="110.690131513696" width="6.745394731822767" height="6.745394731822767" fill="#bd93f9" style="shape-rendering: crispedges;"/><rect x="253.18092097734134" y="110.690131513696" width="6.745394731822767" height="6.745394731822767" fill="#bd93f9" style="shape-rendering: crispedges;"/><rect x="44.07368429083573" y="117.43552624551877" width="6.745394731822767" height="6.745394731822767" fill="#bd93f9" style="shape-rendering: crispedges;"/><rect x="64.30986848630404" y="117.43552624551877" width="6.745394731822767" height="6.745394731822767" fill="#bd93f9" style="shape-rendering: crispedges;"/><rect x="71.05526321812681" y="117.43552624551877" width="6.745394731822767" height="6.745394731822767" fill="#bd93f9" style="shape-rendering: crispedges;"/><rect x="77.80065794994958" y="117.43552624551877" width="6.745394731822767" height="6.745394731822767" fill="#bd93f9" style="shape-rendering: crispedges;"/><rect x="98.03684214541789" y="117.43552624551877" width="6.745394731822767" height="6.745394731822767" fill="#bd93f9" style="shape-rendering: crispedges;"/><rect x="138.5092105363545" y="117.43552624551877" width="6.745394731822767" height="6.745394731822767" fill="#bd93f9" style="shape-rendering: crispedges;"/><rect x="145.25460526817724" y="117.43552624551877" width="6.745394731822767" height="6.745394731822767" fill="#bd93f9" style="shape-rendering: crispedges;"/><rect x="152" y="117.43552624551877" width="6.745394731822767" height="6.745394731822767" fill="#bd93f9" style="shape-rendering: crispedges;"/><rect x="172.23618419546827" y="117.43552624551877" width="6.745394731822767" height="6.745394731822767" fill="#bd93f9" style="shape-rendering: crispedges;"/><rect x="192.47236839093654" y="117.43552624551877" width="6.745394731822767" height="6.745394731822767" fill="#bd93f9" style="shape-rendering: crispedges;"/><rect x="205.96315785458205" y="117.43552624551877" width="6.745394731822767" height="6.745394731822767" fill="#bd93f9" style="shape-rendering: crispedges;"/><rect x="226.19934205005032" y="117.43552624551877" width="6.745394731822767" height="6.745394731822767" fill="#bd93f9" style="shape-rendering: crispedges;"/><rect x="232.94473678187308" y="117.43552624551877" width="6.745394731822767" height="6.745394731822767" fill="#bd93f9" style="shape-rendering: crispedges;"/><rect x="246.4355262455186" y="117.43552624551877" width="6.745394731822767" height="6.745394731822767" fill="#bd93f9" style="shape-rendering: crispedges;"/><rect x="44.07368429083573" y="124.18092097734154" width="6.745394731822767" height="6.745394731822767" fill="#bd93f9" style="shape-rendering: crispedges;"/><rect x="57.56447375448127" y="124.18092097734154" width="6.745394731822767" height="6.745394731822767" fill="#bd93f9" style="shape-rendering: crispedges;"/><rect x="125.01842107270897" y="124.18092097734154" width="6.745394731822767" height="6.745394731822767" fill="#bd93f9" style="shape-rendering: crispedges;"/><rect x="138.5092105363545" y="124.18092097734154" width="6.745394731822767" height="6.745394731822767" fill="#bd93f9" style="shape-rendering: crispedges;"/><rect x="145.25460526817724" y="124.18092097734154" width="6.745394731822767" height="6.745394731822767" fill="#bd93f9" style="shape-rendering: crispedges;"/><rect x="152" y="124.18092097734154" width="6.745394731822767" height="6.745394731822767" fill="#bd93f9" style="shape-rendering: crispedges;"/><rect x="165.4907894636455" y="124.18092097734154" width="6.745394731822767" height="6.745394731822767" fill="#bd93f9" style="shape-rendering: crispedges;"/><rect x="178.98157892729103" y="124.18092097734154" width="6.745394731822767" height="6.745394731822767" fill="#bd93f9" style="shape-rendering: crispedges;"/><rect x="199.2177631227593" y="124.18092097734154" width="6.745394731822767" height="6.745394731822767" fill="#bd93f9" style="shape-rendering: crispedges;"/><rect x="219.45394731822756" y="124.18092097734154" width="6.745394731822767" height="6.745394731822767" fill="#bd93f9" style="shape-rendering: crispedges;"/><rect x="239.69013151369583" y="124.18092097734154" width="6.745394731822767" height="6.745394731822767" fill="#bd93f9" style="shape-rendering: crispedges;"/><rect x="246.4355262455186" y="124.18092097734154" width="6.745394731822767" height="6.745394731822767" fill="#bd93f9" style="shape-rendering: crispedges;"/><rect x="44.07368429083573" y="130.9263157091643" width="6.745394731822767" height="6.745394731822767" fill="#bd93f9" style="shape-rendering: crispedges;"/><rect x="50.8190790226585" y="130.9263157091643" width="6.745394731822767" height="6.745394731822767" fill="#bd93f9" style="shape-rendering: crispedges;"/><rect x="77.80065794994958" y="130.9263157091643" width="6.745394731822767" height="6.745394731822767" fill="#bd93f9" style="shape-rendering: crispedges;"/><rect x="91.29144741359512" y="130.9263157091643" width="6.745394731822767" height="6.745394731822767" fill="#bd93f9" style="shape-rendering: crispedges;"/><rect x="145.25460526817724" y="130.9263157091643" width="6.745394731822767" height="6.745394731822767" fill="#bd93f9" style="shape-rendering: crispedges;"/><rect x="165.4907894636455" y="130.9263157091643" width="6.745394731822767" height="6.745394731822767" fill="#bd93f9" style="shape-rendering: crispedges;"/><rect x="172.23618419546827" y="130.9263157091643" width="6.745394731822767" height="6.745394731822767" fill="#bd93f9" style="shape-rendering: crispedges;"/><rect x="178.98157892729103" y="130.9263157091643" width="6.745394731822767" height="6.745394731822767" fill="#bd93f9" style="shape-rendering: crispedges;"/><rect x="212.7085525864048" y="130.9263157091643" width="6.745394731822767" height="6.745394731822767" fill="#bd93f9" style="shape-rendering: crispedges;"/><rect x="219.45394731822756" y="130.9263157091643" width="6.745394731822767" height="6.745394731822767" fill="#bd93f9" style="shape-rendering: crispedges;"/><rect x="226.19934205005032" y="130.9263157091643" width="6.745394731822767" height="6.745394731822767" fill="#bd93f9" style="shape-rendering: crispedges;"/><rect x="50.8190790226585" y="137.67171044098706" width="6.745394731822767" height="6.745394731822767" fill="#bd93f9" style="shape-rendering: crispedges;"/><rect x="57.56447375448127" y="137.67171044098706" width="6.745394731822767" height="6.745394731822767" fill="#bd93f9" style="shape-rendering: crispedges;"/><rect x="71.05526321812681" y="137.67171044098706" width="6.745394731822767" height="6.745394731822767" fill="#bd93f9" style="shape-rendering: crispedges;"/><rect x="84.54605268177235" y="137.67171044098706" width="6.745394731822767" height="6.745394731822767" fill="#bd93f9" style="shape-rendering: crispedges;"/><rect x="98.03684214541789" y="137.67171044098706" width="6.745394731822767" height="6.745394731822767" fill="#bd93f9" style="shape-rendering: crispedges;"/><rect x="104.78223687724066" y="137.67171044098706" width="6.745394731822767" height="6.745394731822767" fill="#bd93f9" style="shape-rendering: crispedges;"/><rect x="111.52763160906343" y="137.67171044098706" width="6.745394731822767" height="6.745394731822767" fill="#bd93f9" style="shape-rendering: crispedges;"/><rect x="125.01842107270897" y="137.67171044098706" width="6.745394731822767" height="6.745394731822767" fill="#bd93f9" style="shape-rendering: crispedges;"/><rect x="138.5092105363545" y="137.67171044098706" width="6.745394731822767" height="6.745394731822767" fill="#bd93f9" style="shape-rendering: crispedges;"/><rect x="145.25460526817724" y="137.67171044098706" width="6.745394731822767" height="6.745394731822767" fill="#bd93f9" style="shape-rendering: crispedges;"/><rect x="158.74539473182276" y="137.67171044098706" width="6.745394731822767" height="6.745394731822767" fill="#bd93f9" style="shape-rendering: crispedges;"/><rect x="172.23618419546827" y="137.67171044098706" width="6.745394731822767" height="6.745394731822767" fill="#bd93f9" style="shape-rendering: crispedges;"/><rect x="178.98157892729103" y="137.67171044098706" width="6.745394731822767" height="6.745394731822767" fill="#bd93f9" style="shape-rendering: crispedges;"/><rect x="192.47236839093654" y="137.67171044098706" width="6.745394731822767" height="6.745394731822767" fill="#bd93f9" style="shape-rendering: crispedges;"/><rect x="199.2177631227593" y="137.67171044098706" width="6.745394731822767" height="6.745394731822767" fill="#bd93f9" style="shape-rendering: crispedges;"/><rect x="205.96315785458205" y="137.67171044098706" width="6.745394731822767" height="6.745394731822767" fill="#bd93f9" style="shape-rendering: crispedges;"/><rect x="212.7085525864048" y="137.67171044098706" width="6.745394731822767" height="6.745394731822767" fill="#bd93f9" style="shape-rendering: crispedges;"/><rect x="232.94473678187308" y="137.67171044098706" width="6.745394731822767" height="6.745394731822767" fill="#bd93f9" style="shape-rendering: crispedges;"/><rect x="239.69013151369583" y="137.67171044098706" width="6.745394731822767" height="6.745394731822767" fill="#bd93f9" style="shape-rendering: crispedges;"/><rect x="50.8190790226585" y="144.4171051728098" width="6.745394731822767" height="6.745394731822767" fill="#bd93f9" style="shape-rendering: crispedges;"/><rect x="57.56447375448127" y="144.4171051728098" width="6.745394731822767" height="6.745394731822767" fill="#bd93f9" style="shape-rendering: crispedges;"/><rect x="64.30986848630404" y="144.4171051728098" width="6.745394731822767" height="6.745394731822767" fill="#bd93f9" style="shape-rendering: crispedges;"/><rect x="77.80065794994958" y="144.4171051728098" width="6.745394731822767" height="6.745394731822767" fill="#bd93f9" style="shape-rendering: crispedges;"/><rect x="91.29144741359512" y="144.4171051728098" width="6.745394731822767" height="6.745394731822767" fill="#bd93f9" style="shape-rendering: crispedges;"/><rect x="98.03684214541789" y="144.4171051728098" width="6.745394731822767" height="6.745394731822767" fill="#bd93f9" style="shape-rendering: crispedges;"/><rect x="111.52763160906343" y="144.4171051728098" width="6.745394731822767" height="6.745394731822767" fill="#bd93f9" style="shape-rendering: crispedges;"/><rect x="118.2730263408862" y="144.4171051728098" width="6.745394731822767" height="6.745394731822767" fill="#bd93f9" style="shape-rendering: crispedges;"/><rect x="158.74539473182276" y="144.4171051728098" width="6.745394731822767" height="6.745394731822767" fill="#bd93f9" style="shape-rendering: crispedges;"/><rect x="172.23618419546827" y="144.4171051728098" width="6.745394731822767" height="6.745394731822767" fill="#bd93f9" style="shape-rendering: crispedges;"/><rect x="178.98157892729103" y="144.4171051728098" width="6.745394731822767" height="6.745394731822767" fill="#bd93f9" style="shape-rendering: crispedges;"/><rect x="185.72697365911378" y="144.4171051728098" width="6.745394731822767" height="6.745394731822767" fill="#bd93f9" style="shape-rendering: crispedges;"/><rect x="192.47236839093654" y="144.4171051728098" width="6.745394731822767" height="6.745394731822767" fill="#bd93f9" style="shape-rendering: crispedges;"/><rect x="205.96315785458205" y="144.4171051728098" width="6.745394731822767" height="6.745394731822767" fill="#bd93f9" style="shape-rendering: crispedges;"/><rect x="212.7085525864048" y="144.4171051728098" width="6.745394731822767" height="6.745394731822767" fill="#bd93f9" style="shape-rendering: crispedges;"/><rect x="226.19934205005032" y="144.4171051728098" width="6.745394731822767" height="6.745394731822767" fill="#bd93f9" style="shape-rendering: crispedges;"/><rect x="239.69013151369583" y="144.4171051728098" width="6.745394731822767" height="6.745394731822767" fill="#bd93f9" style="shape-rendering: crispedges;"/><rect x="37.328289559012966" y="151.16249990463257" width="6.745394731822767" height="6.745394731822767" fill="#bd93f9" style="shape-rendering: crispedges;"/><rect x="44.07368429083573" y="151.16249990463257" width="6.745394731822767" height="6.745394731822767" fill="#bd93f9" style="shape-rendering: crispedges;"/><rect x="50.8190790226585" y="151.16249990463257" width="6.745394731822767" height="6.745394731822767" fill="#bd93f9" style="shape-rendering: crispedges;"/><rect x="84.54605268177235" y="151.16249990463257" width="6.745394731822767" height="6.745394731822767" fill="#bd93f9" style="shape-rendering: crispedges;"/><rect x="91.29144741359512" y="151.16249990463257" width="6.745394731822767" height="6.745394731822767" fill="#bd93f9" style="shape-rendering: crispedges;"/><rect x="111.52763160906343" y="151.16249990463257" width="6.745394731822767" height="6.745394731822767" fill="#bd93f9" style="shape-rendering: crispedges;"/><rect x="118.2730263408862" y="151.16249990463257" width="6.745394731822767" height="6.745394731822767" fill="#bd93f9" style="shape-rendering: crispedges;"/><rect x="125.01842107270897" y="151.16249990463257" width="6.745394731822767" height="6.745394731822767" fill="#bd93f9" style="shape-rendering: crispedges;"/><rect x="138.5092105363545" y="151.16249990463257" width="6.745394731822767" height="6.745394731822767" fill="#bd93f9" style="shape-rendering: crispedges;"/><rect x="172.23618419546827" y="151.16249990463257" width="6.745394731822767" height="6.745394731822767" fill="#bd93f9" style="shape-rendering: crispedges;"/><rect x="178.98157892729103" y="151.16249990463257" width="6.745394731822767" height="6.745394731822767" fill="#bd93f9" style="shape-rendering: crispedges;"/><rect x="185.72697365911378" y="151.16249990463257" width="6.745394731822767" height="6.745394731822767" fill="#bd93f9" style="shape-rendering: crispedges;"/><rect x="192.47236839093654" y="151.16249990463257" width="6.745394731822767" height="6.745394731822767" fill="#bd93f9" style="shape-rendering: crispedges;"/><rect x="199.2177631227593" y="151.16249990463257" width="6.745394731822767" height="6.745394731822767" fill="#bd93f9" style="shape-rendering: crispedges;"/><rect x="205.96315785458205" y="151.16249990463257" width="6.745394731822767" height="6.745394731822767" fill="#bd93f9" style="shape-rendering: crispedges;"/><rect x="212.7085525864048" y="151.16249990463257" width="6.745394731822767" height="6.745394731822767" fill="#bd93f9" style="shape-rendering: crispedges;"/><rect x="226.19934205005032" y="151.16249990463257" width="6.745394731822767" height="6.745394731822767" fill="#bd93f9" style="shape-rendering: crispedges;"/><rect x="232.94473678187308" y="151.16249990463257" width="6.745394731822767" height="6.745394731822767" fill="#bd93f9" style="shape-rendering: crispedges;"/><rect x="246.4355262455186" y="151.16249990463257" width="6.745394731822767" height="6.745394731822767" fill="#bd93f9" style="shape-rendering: crispedges;"/><rect x="253.18092097734134" y="151.16249990463257" width="6.745394731822767" height="6.745394731822767" fill="#bd93f9" style="shape-rendering: crispedges;"/><rect x="37.328289559012966" y="157.90789463645532" width="6.745394731822767" height="6.745394731822767" fill="#bd93f9" style="shape-rendering: crispedges;"/><rect x="44.07368429083573" y="157.90789463645532" width="6.745394731822767" height="6.745394731822767" fill="#bd93f9" style="shape-rendering: crispedges;"/><rect x="50.8190790226585" y="157.90789463645532" width="6.745394731822767" height="6.745394731822767" fill="#bd93f9" style="shape-rendering: crispedges;"/><rect x="64.30986848630404" y="157.90789463645532" width="6.745394731822767" height="6.745394731822767" fill="#bd93f9" style="shape-rendering: crispedges;"/><rect x="77.80065794994958" y="157.90789463645532" width="6.745394731822767" height="6.745394731822767" fill="#bd93f9" style="shape-rendering: crispedges;"/><rect x="98.03684214541789" y="157.90789463645532" width="6.745394731822767" height="6.745394731822767" fill="#bd93f9" style="shape-rendering: crispedges;"/><rect x="118.2730263408862" y="157.90789463645532" width="6.745394731822767" height="6.745394731822767" fill="#bd93f9" style="shape-rendering: crispedges;"/><rect x="131.76381580453173" y="157.90789463645532" width="6.745394731822767" height="6.745394731822767" fill="#bd93f9" style="shape-rendering: crispedges;"/><rect x="138.5092105363545" y="157.90789463645532" width="6.745394731822767" height="6.745394731822767" fill="#bd93f9" style="shape-rendering: crispedges;"/><rect x="152" y="157.90789463645532" width="6.745394731822767" height="6.745394731822767" fill="#bd93f9" style="shape-rendering: crispedges;"/><rect x="158.74539473182276" y="157.90789463645532" width="6.745394731822767" height="6.745394731822767" fill="#bd93f9" style="shape-rendering: crispedges;"/><rect x="172.23618419546827" y="157.90789463645532" width="6.745394731822767" height="6.745394731822767" fill="#bd93f9" style="shape-rendering: crispedges;"/><rect x="178.98157892729103" y="157.90789463645532" width="6.745394731822767" height="6.745394731822767" fill="#bd93f9" style="shape-rendering: crispedges;"/><rect x="185.72697365911378" y="157.90789463645532" width="6.745394731822767" height="6.745394731822767" fill="#bd93f9" style="shape-rendering: crispedges;"/><rect x="199.2177631227593" y="157.90789463645532" width="6.745394731822767" height="6.745394731822767" fill="#bd93f9" style="shape-rendering: crispedges;"/><rect x="205.96315785458205" y="157.90789463645532" width="6.745394731822767" height="6.745394731822767" fill="#bd93f9" style="shape-rendering: crispedges;"/><rect x="212.7085525864048" y="157.90789463645532" width="6.745394731822767" height="6.745394731822767" fill="#bd93f9" style="shape-rendering: crispedges;"/><rect x="219.45394731822756" y="157.90789463645532" width="6.745394731822767" height="6.745394731822767" fill="#bd93f9" style="shape-rendering: crispedges;"/><rect x="226.19934205005032" y="157.90789463645532" width="6.745394731822767" height="6.745394731822767" fill="#bd93f9" style="shape-rendering: crispedges;"/><rect x="239.69013151369583" y="157.90789463645532" width="6.745394731822767" height="6.745394731822767" fill="#bd93f9" style="shape-rendering: crispedges;"/><rect x="246.4355262455186" y="157.90789463645532" width="6.745394731822767" height="6.745394731822767" fill="#bd93f9" style="shape-rendering: crispedges;"/><rect x="50.8190790226585" y="164.65328936827808" width="6.745394731822767" height="6.745394731822767" fill="#bd93f9" style="shape-rendering: crispedges;"/><rect x="64.30986848630404" y="164.65328936827808" width="6.745394731822767" height="6.745394731822767" fill="#bd93f9" style="shape-rendering: crispedges;"/><rect x="84.54605268177235" y="164.65328936827808" width="6.745394731822767" height="6.745394731822767" fill="#bd93f9" style="shape-rendering: crispedges;"/><rect x="91.29144741359512" y="164.65328936827808" width="6.745394731822767" height="6.745394731822767" fill="#bd93f9" style="shape-rendering: crispedges;"/><rect x="98.03684214541789" y="164.65328936827808" width="6.745394731822767" height="6.745394731822767" fill="#bd93f9" style="shape-rendering: crispedges;"/><rect x="111.52763160906343" y="164.65328936827808" width="6.745394731822767" height="6.745394731822767" fill="#bd93f9" style="shape-rendering: crispedges;"/><rect x="131.76381580453173" y="164.65328936827808" width="6.745394731822767" height="6.745394731822767" fill="#bd93f9" style="shape-rendering: crispedges;"/><rect x="145.25460526817724" y="164.65328936827808" width="6.745394731822767" height="6.745394731822767" fill="#bd93f9" style="shape-rendering: crispedges;"/><rect x="152" y="164.65328936827808" width="6.745394731822767" height="6.745394731822767" fill="#bd93f9" style="shape-rendering: crispedges;"/><rect x="165.4907894636455" y="164.65328936827808" width="6.745394731822767" height="6.745394731822767" fill="#bd93f9" style="shape-rendering: crispedges;"/><rect x="185.72697365911378" y="164.65328936827808" width="6.745394731822767" height="6.745394731822767" fill="#bd93f9" style="shape-rendering: crispedges;"/><rect x="192.47236839093654" y="164.65328936827808" width="6.745394731822767" height="6.745394731822767" fill="#bd93f9" style="shape-rendering: crispedges;"/><rect x="199.2177631227593" y="164.65328936827808" width="6.745394731822767" height="6.745394731822767" fill="#bd93f9" style="shape-rendering: crispedges;"/><rect x="205.96315785458205" y="164.65328936827808" width="6.745394731822767" height="6.745394731822767" fill="#bd93f9" style="shape-rendering: crispedges;"/><rect x="226.19934205005032" y="164.65328936827808" width="6.745394731822767" height="6.745394731822767" fill="#bd93f9" style="shape-rendering: crispedges;"/><rect x="253.18092097734134" y="164.65328936827808" width="6.745394731822767" height="6.745394731822767" fill="#bd93f9" style="shape-rendering: crispedges;"/><rect x="44.07368429083573" y="171.39868410010084" width="6.745394731822767" height="6.745394731822767" fill="#bd93f9" style="shape-rendering: crispedges;"/><rect x="50.8190790226585" y="171.39868410010084" width="6.745394731822767" height="6.745394731822767" fill="#bd93f9" style="shape-rendering: crispedges;"/><rect x="57.56447375448127" y="171.39868410010084" width="6.745394731822767" height="6.745394731822767" fill="#bd93f9" style="shape-rendering: crispedges;"/><rect x="64.30986848630404" y="171.39868410010084" width="6.745394731822767" height="6.745394731822767" fill="#bd93f9" style="shape-rendering: crispedges;"/><rect x="77.80065794994958" y="171.39868410010084" width="6.745394731822767" height="6.745394731822767" fill="#bd93f9" style="shape-rendering: crispedges;"/><rect x="91.29144741359512" y="171.39868410010084" width="6.745394731822767" height="6.745394731822767" fill="#bd93f9" style="shape-rendering: crispedges;"/><rect x="98.03684214541789" y="171.39868410010084" width="6.745394731822767" height="6.745394731822767" fill="#bd93f9" style="shape-rendering: crispedges;"/><rect x="111.52763160906343" y="171.39868410010084" width="6.745394731822767" height="6.745394731822767" fill="#bd93f9" style="shape-rendering: crispedges;"/><rect x="152" y="171.39868410010084" width="6.745394731822767" height="6.745394731822767" fill="#bd93f9" style="shape-rendering: crispedges;"/><rect x="158.74539473182276" y="171.39868410010084" width="6.745394731822767" height="6.745394731822767" fill="#bd93f9" style="shape-rendering: crispedges;"/><rect x="178.98157892729103" y="171.39868410010084" width="6.745394731822767" height="6.745394731822767" fill="#bd93f9" style="shape-rendering: crispedges;"/><rect x="199.2177631227593" y="171.39868410010084" width="6.745394731822767" height="6.745394731822767" fill="#bd93f9" style="shape-rendering: crispedges;"/><rect x="205.96315785458205" y="171.39868410010084" width="6.745394731822767" height="6.745394731822767" fill="#bd93f9" style="shape-rendering: crispedges;"/><rect x="232.94473678187308" y="171.39868410010084" width="6.745394731822767" height="6.745394731822767" fill="#bd93f9" style="shape-rendering: crispedges;"/><rect x="239.69013151369583" y="171.39868410010084" width="6.745394731822767" height="6.745394731822767" fill="#bd93f9" style="shape-rendering: crispedges;"/><rect x="37.328289559012966" y="178.1440788319236" width="6.745394731822767" height="6.745394731822767" fill="#bd93f9" style="shape-rendering: crispedges;"/><rect x="50.8190790226585" y="178.1440788319236" width="6.745394731822767" height="6.745394731822767" fill="#bd93f9" style="shape-rendering: crispedges;"/><rect x="71.05526321812681" y="178.1440788319236" width="6.745394731822767" height="6.745394731822767" fill="#bd93f9" style="shape-rendering: crispedges;"/><rect x="91.29144741359512" y="178.1440788319236" width="6.745394731822767" height="6.745394731822767" fill="#bd93f9" style="shape-rendering: crispedges;"/><rect x="104.78223687724066" y="178.1440788319236" width="6.745394731822767" height="6.745394731822767" fill="#bd93f9" style="shape-rendering: crispedges;"/><rect x="118.2730263408862" y="178.1440788319236" width="6.745394731822767" height="6.745394731822767" fill="#bd93f9" style="shape-rendering: crispedges;"/><rect x="145.25460526817724" y="178.1440788319236" width="6.745394731822767" height="6.745394731822767" fill="#bd93f9" style="shape-rendering: crispedges;"/><rect x="152" y="178.1440788319236" width="6.745394731822767" height="6.745394731822767" fill="#bd93f9" style="shape-rendering: crispedges;"/><rect x="158.74539473182276" y="178.1440788319236" width="6.745394731822767" height="6.745394731822767" fill="#bd93f9" style="shape-rendering: crispedges;"/><rect x="165.4907894636455" y="178.1440788319236" width="6.745394731822767" height="6.745394731822767" fill="#bd93f9" style="shape-rendering: crispedges;"/><rect x="172.23618419546827" y="178.1440788319236" width="6.745394731822767" height="6.745394731822767" fill="#bd93f9" style="shape-rendering: crispedges;"/><rect x="178.98157892729103" y="178.1440788319236" width="6.745394731822767" height="6.745394731822767" fill="#bd93f9" style="shape-rendering: crispedges;"/><rect x="192.47236839093654" y="178.1440788319236" width="6.745394731822767" height="6.745394731822767" fill="#bd93f9" style="shape-rendering: crispedges;"/><rect x="212.7085525864048" y="178.1440788319236" width="6.745394731822767" height="6.745394731822767" fill="#bd93f9" style="shape-rendering: crispedges;"/><rect x="253.18092097734134" y="178.1440788319236" width="6.745394731822767" height="6.745394731822767" fill="#bd93f9" style="shape-rendering: crispedges;"/><rect x="50.8190790226585" y="184.88947356374635" width="6.745394731822767" height="6.745394731822767" fill="#bd93f9" style="shape-rendering: crispedges;"/><rect x="77.80065794994958" y="184.88947356374635" width="6.745394731822767" height="6.745394731822767" fill="#bd93f9" style="shape-rendering: crispedges;"/><rect x="84.54605268177235" y="184.88947356374635" width="6.745394731822767" height="6.745394731822767" fill="#bd93f9" style="shape-rendering: crispedges;"/><rect x="98.03684214541789" y="184.88947356374635" width="6.745394731822767" height="6.745394731822767" fill="#bd93f9" style="shape-rendering: crispedges;"/><rect x="111.52763160906343" y="184.88947356374635" width="6.745394731822767" height="6.745394731822767" fill="#bd93f9" style="shape-rendering: crispedges;"/><rect x="118.2730263408862" y="184.88947356374635" width="6.745394731822767" height="6.745394731822767" fill="#bd93f9" style="shape-rendering: crispedges;"/><rect x="131.76381580453173" y="184.88947356374635" width="6.745394731822767" height="6.745394731822767" fill="#bd93f9" style="shape-rendering: crispedges;"/><rect x="145.25460526817724" y="184.88947356374635" width="6.745394731822767" height="6.745394731822767" fill="#bd93f9" style="shape-rendering: crispedges;"/><rect x="158.74539473182276" y="184.88947356374635" width="6.745394731822767" height="6.745394731822767" fill="#bd93f9" style="shape-rendering: crispedges;"/><rect x="178.98157892729103" y="184.88947356374635" width="6.745394731822767" height="6.745394731822767" fill="#bd93f9" style="shape-rendering: crispedges;"/><rect x="192.47236839093654" y="184.88947356374635" width="6.745394731822767" height="6.745394731822767" fill="#bd93f9" style="shape-rendering: crispedges;"/><rect x="205.96315785458205" y="184.88947356374635" width="6.745394731822767" height="6.745394731822767" fill="#bd93f9" style="shape-rendering: crispedges;"/><rect x="212.7085525864048" y="184.88947356374635" width="6.745394731822767" height="6.745394731822767" fill="#bd93f9" style="shape-rendering: crispedges;"/><rect x="226.19934205005032" y="184.88947356374635" width="6.745394731822767" height="6.745394731822767" fill="#bd93f9" style="shape-rendering: crispedges;"/><rect x="246.4355262455186" y="184.88947356374635" width="6.745394731822767" height="6.745394731822767" fill="#bd93f9" style="shape-rendering: crispedges;"/><rect x="253.18092097734134" y="184.88947356374635" width="6.745394731822767" height="6.745394731822767" fill="#bd93f9" style="shape-rendering: crispedges;"/><rect x="44.07368429083573" y="191.6348682955691" width="6.745394731822767" height="6.745394731822767" fill="#bd93f9" style="shape-rendering: crispedges;"/><rect x="50.8190790226585" y="191.6348682955691" width="6.745394731822767" height="6.745394731822767" fill="#bd93f9" style="shape-rendering: crispedges;"/><rect x="57.56447375448127" y="191.6348682955691" width="6.745394731822767" height="6.745394731822767" fill="#bd93f9" style="shape-rendering: crispedges;"/><rect x="64.30986848630404" y="191.6348682955691" width="6.745394731822767" height="6.745394731822767" fill="#bd93f9" style="shape-rendering: crispedges;"/><rect x="71.05526321812681" y="191.6348682955691" width="6.745394731822767" height="6.745394731822767" fill="#bd93f9" style="shape-rendering: crispedges;"/><rect x="98.03684214541789" y="191.6348682955691" width="6.745394731822767" height="6.745394731822767" fill="#bd93f9" style="shape-rendering: crispedges;"/><rect x="111.52763160906343" y="191.6348682955691" width="6.745394731822767" height="6.745394731822767" fill="#bd93f9" style="shape-rendering: crispedges;"/><rect x="118.2730263408862" y="191.6348682955691" width="6.745394731822767" height="6.745394731822767" fill="#bd93f9" style="shape-rendering: crispedges;"/><rect x="125.01842107270897" y="191.6348682955691" width="6.745394731822767" height="6.745394731822767" fill="#bd93f9" style="shape-rendering: crispedges;"/><rect x="131.76381580453173" y="191.6348682955691" width="6.745394731822767" height="6.745394731822767" fill="#bd93f9" style="shape-rendering: crispedges;"/><rect x="145.25460526817724" y="191.6348682955691" width="6.745394731822767" height="6.745394731822767" fill="#bd93f9" style="shape-rendering: crispedges;"/><rect x="158.74539473182276" y="191.6348682955691" width="6.745394731822767" height="6.745394731822767" fill="#bd93f9" style="shape-rendering: crispedges;"/><rect x="199.2177631227593" y="191.6348682955691" width="6.745394731822767" height="6.745394731822767" fill="#bd93f9" style="shape-rendering: crispedges;"/><rect x="212.7085525864048" y="191.6348682955691" width="6.745394731822767" height="6.745394731822767" fill="#bd93f9" style="shape-rendering: crispedges;"/><rect x="246.4355262455186" y="191.6348682955691" width="6.745394731822767" height="6.745394731822767" fill="#bd93f9" style="shape-rendering: crispedges;"/><rect x="37.328289559012966" y="198.38026302739186" width="6.745394731822767" height="6.745394731822767" fill="#bd93f9" style="shape-rendering: crispedges;"/><rect x="64.30986848630404" y="198.38026302739186" width="6.745394731822767" height="6.745394731822767" fill="#bd93f9" style="shape-rendering: crispedges;"/><rect x="77.80065794994958" y="198.38026302739186" width="6.745394731822767" height="6.745394731822767" fill="#bd93f9" style="shape-rendering: crispedges;"/><rect x="125.01842107270897" y="198.38026302739186" width="6.745394731822767" height="6.745394731822767" fill="#bd93f9" style="shape-rendering: crispedges;"/><rect x="131.76381580453173" y="198.38026302739186" width="6.745394731822767" height="6.745394731822767" fill="#bd93f9" style="shape-rendering: crispedges;"/><rect x="145.25460526817724" y="198.38026302739186" width="6.745394731822767" height="6.745394731822767" fill="#bd93f9" style="shape-rendering: crispedges;"/><rect x="152" y="198.38026302739186" width="6.745394731822767" height="6.745394731822767" fill="#bd93f9" style="shape-rendering: crispedges;"/><rect x="185.72697365911378" y="198.38026302739186" width="6.745394731822767" height="6.745394731822767" fill="#bd93f9" style="shape-rendering: crispedges;"/><rect x="199.2177631227593" y="198.38026302739186" width="6.745394731822767" height="6.745394731822767" fill="#bd93f9" style="shape-rendering: crispedges;"/><rect x="205.96315785458205" y="198.38026302739186" width="6.745394731822767" height="6.745394731822767" fill="#bd93f9" style="shape-rendering: crispedges;"/><rect x="212.7085525864048" y="198.38026302739186" width="6.745394731822767" height="6.745394731822767" fill="#bd93f9" style="shape-rendering: crispedges;"/><rect x="219.45394731822756" y="198.38026302739186" width="6.745394731822767" height="6.745394731822767" fill="#bd93f9" style="shape-rendering: crispedges;"/><rect x="226.19934205005032" y="198.38026302739186" width="6.745394731822767" height="6.745394731822767" fill="#bd93f9" style="shape-rendering: crispedges;"/><rect x="246.4355262455186" y="198.38026302739186" width="6.745394731822767" height="6.745394731822767" fill="#bd93f9" style="shape-rendering: crispedges;"/><rect x="253.18092097734134" y="198.38026302739186" width="6.745394731822767" height="6.745394731822767" fill="#bd93f9" style="shape-rendering: crispedges;"/><rect x="91.29144741359512" y="205.12565775921462" width="6.745394731822767" height="6.745394731822767" fill="#bd93f9" style="shape-rendering: crispedges;"/><rect x="104.78223687724066" y="205.12565775921462" width="6.745394731822767" height="6.745394731822767" fill="#bd93f9" style="shape-rendering: crispedges;"/><rect x="111.52763160906343" y="205.12565775921462" width="6.745394731822767" height="6.745394731822767" fill="#bd93f9" style="shape-rendering: crispedges;"/><rect x="125.01842107270897" y="205.12565775921462" width="6.745394731822767" height="6.745394731822767" fill="#bd93f9" style="shape-rendering: crispedges;"/><rect x="131.76381580453173" y="205.12565775921462" width="6.745394731822767" height="6.745394731822767" fill="#bd93f9" style="shape-rendering: crispedges;"/><rect x="138.5092105363545" y="205.12565775921462" width="6.745394731822767" height="6.745394731822767" fill="#bd93f9" style="shape-rendering: crispedges;"/><rect x="145.25460526817724" y="205.12565775921462" width="6.745394731822767" height="6.745394731822767" fill="#bd93f9" style="shape-rendering: crispedges;"/><rect x="158.74539473182276" y="205.12565775921462" width="6.745394731822767" height="6.745394731822767" fill="#bd93f9" style="shape-rendering: crispedges;"/><rect x="165.4907894636455" y="205.12565775921462" width="6.745394731822767" height="6.745394731822767" fill="#bd93f9" style="shape-rendering: crispedges;"/><rect x="172.23618419546827" y="205.12565775921462" width="6.745394731822767" height="6.745394731822767" fill="#bd93f9" style="shape-rendering: crispedges;"/><rect x="178.98157892729103" y="205.12565775921462" width="6.745394731822767" height="6.745394731822767" fill="#bd93f9" style="shape-rendering: crispedges;"/><rect x="199.2177631227593" y="205.12565775921462" width="6.745394731822767" height="6.745394731822767" fill="#bd93f9" style="shape-rendering: crispedges;"/><rect x="226.19934205005032" y="205.12565775921462" width="6.745394731822767" height="6.745394731822767" fill="#bd93f9" style="shape-rendering: crispedges;"/><rect x="232.94473678187308" y="205.12565775921462" width="6.745394731822767" height="6.745394731822767" fill="#bd93f9" style="shape-rendering: crispedges;"/><rect x="37.328289559012966" y="211.87105249103737" width="6.745394731822767" height="6.745394731822767" fill="#bd93f9" style="shape-rendering: crispedges;"/><rect x="44.07368429083573" y="211.87105249103737" width="6.745394731822767" height="6.745394731822767" fill="#bd93f9" style="shape-rendering: crispedges;"/><rect x="50.8190790226585" y="211.87105249103737" width="6.745394731822767" height="6.745394731822767" fill="#bd93f9" style="shape-rendering: crispedges;"/><rect x="57.56447375448127" y="211.87105249103737" width="6.745394731822767" height="6.745394731822767" fill="#bd93f9" style="shape-rendering: crispedges;"/><rect x="64.30986848630404" y="211.87105249103737" width="6.745394731822767" height="6.745394731822767" fill="#bd93f9" style="shape-rendering: crispedges;"/><rect x="71.05526321812681" y="211.87105249103737" width="6.745394731822767" height="6.745394731822767" fill="#bd93f9" style="shape-rendering: crispedges;"/><rect x="77.80065794994958" y="211.87105249103737" width="6.745394731822767" height="6.745394731822767" fill="#bd93f9" style="shape-rendering: crispedges;"/><rect x="91.29144741359512" y="211.87105249103737" width="6.745394731822767" height="6.745394731822767" fill="#bd93f9" style="shape-rendering: crispedges;"/><rect x="98.03684214541789" y="211.87105249103737" width="6.745394731822767" height="6.745394731822767" fill="#bd93f9" style="shape-rendering: crispedges;"/><rect x="118.2730263408862" y="211.87105249103737" width="6.745394731822767" height="6.745394731822767" fill="#bd93f9" style="shape-rendering: crispedges;"/><rect x="125.01842107270897" y="211.87105249103737" width="6.745394731822767" height="6.745394731822767" fill="#bd93f9" style="shape-rendering: crispedges;"/><rect x="165.4907894636455" y="211.87105249103737" width="6.745394731822767" height="6.745394731822767" fill="#bd93f9" style="shape-rendering: crispedges;"/><rect x="172.23618419546827" y="211.87105249103737" width="6.745394731822767" height="6.745394731822767" fill="#bd93f9" style="shape-rendering: crispedges;"/><rect x="178.98157892729103" y="211.87105249103737" width="6.745394731822767" height="6.745394731822767" fill="#bd93f9" style="shape-rendering: crispedges;"/><rect x="192.47236839093654" y="211.87105249103737" width="6.745394731822767" height="6.745394731822767" fill="#bd93f9" style="shape-rendering: crispedges;"/><rect x="199.2177631227593" y="211.87105249103737" width="6.745394731822767" height="6.745394731822767" fill="#bd93f9" style="shape-rendering: crispedges;"/><rect x="212.7085525864048" y="211.87105249103737" width="6.745394731822767" height="6.745394731822767" fill="#bd93f9" style="shape-rendering: crispedges;"/><rect x="226.19934205005032" y="211.87105249103737" width="6.745394731822767" height="6.745394731822767" fill="#bd93f9" style="shape-rendering: crispedges;"/><rect x="37.328289559012966" y="218.61644722286013" width="6.745394731822767" height="6.745394731822767" fill="#bd93f9" style="shape-rendering: crispedges;"/><rect x="77.80065794994958" y="218.61644722286013" width="6.745394731822767" height="6.745394731822767" fill="#bd93f9" style="shape-rendering: crispedges;"/><rect x="91.29144741359512" y="218.61644722286013" width="6.745394731822767" height="6.745394731822767" fill="#bd93f9" style="shape-rendering: crispedges;"/><rect x="111.52763160906343" y="218.61644722286013" width="6.745394731822767" height="6.745394731822767" fill="#bd93f9" style="shape-rendering: crispedges;"/><rect x="118.2730263408862" y="218.61644722286013" width="6.745394731822767" height="6.745394731822767" fill="#bd93f9" style="shape-rendering: crispedges;"/><rect x="138.5092105363545" y="218.61644722286013" width="6.745394731822767" height="6.745394731822767" fill="#bd93f9" style="shape-rendering: crispedges;"/><rect x="172.23618419546827" y="218.61644722286013" width="6.745394731822767" height="6.745394731822767" fill="#bd93f9" style="shape-rendering: crispedges;"/><rect x="178.98157892729103" y="218.61644722286013" width="6.745394731822767" height="6.745394731822767" fill="#bd93f9" style="shape-rendering: crispedges;"/><rect x="185.72697365911378" y="218.61644722286013" width="6.745394731822767" height="6.745394731822767" fill="#bd93f9" style="shape-rendering: crispedges;"/><rect x="192.47236839093654" y="218.61644722286013" width="6.745394731822767" height="6.745394731822767" fill="#bd93f9" style="shape-rendering: crispedges;"/><rect x="199.2177631227593" y="218.61644722286013" width="6.745394731822767" height="6.745394731822767" fill="#bd93f9" style="shape-rendering: crispedges;"/><rect x="226.19934205005032" y="218.61644722286013" width="6.745394731822767" height="6.745394731822767" fill="#bd93f9" style="shape-rendering: crispedges;"/><rect x="232.94473678187308" y="218.61644722286013" width="6.745394731822767" height="6.745394731822767" fill="#bd93f9" style="shape-rendering: crispedges;"/><rect x="239.69013151369583" y="218.61644722286013" width="6.745394731822767" height="6.745394731822767" fill="#bd93f9" style="shape-rendering: crispedges;"/><rect x="246.4355262455186" y="218.61644722286013" width="6.745394731822767" height="6.745394731822767" fill="#bd93f9" style="shape-rendering: crispedges;"/><rect x="37.328289559012966" y="225.3618419546829" width="6.745394731822767" height="6.745394731822767" fill="#bd93f9" style="shape-rendering: crispedges;"/><rect x="50.8190790226585" y="225.3618419546829" width="6.745394731822767" height="6.745394731822767" fill="#bd93f9" style="shape-rendering: crispedges;"/><rect x="57.56447375448127" y="225.3618419546829" width="6.745394731822767" height="6.745394731822767" fill="#bd93f9" style="shape-rendering: crispedges;"/><rect x="64.30986848630404" y="225.3618419546829" width="6.745394731822767" height="6.745394731822767" fill="#bd93f9" style="shape-rendering: crispedges;"/><rect x="77.80065794994958" y="225.3618419546829" width="6.745394731822767" height="6.745394731822767" fill="#bd93f9" style="shape-rendering: crispedges;"/><rect x="98.03684214541789" y="225.3618419546829" width="6.745394731822767" height="6.745394731822767" fill="#bd93f9" style="shape-rendering: crispedges;"/><rect x="104.78223687724066" y="225.3618419546829" width="6.745394731822767" height="6.745394731822767" fill="#bd93f9" style="shape-rendering: crispedges;"/><rect x="118.2730263408862" y="225.3618419546829" width="6.745394731822767" height="6.745394731822767" fill="#bd93f9" style="shape-rendering: crispedges;"/><rect x="158.74539473182276" y="225.3618419546829" width="6.745394731822767" height="6.745394731822767" fill="#bd93f9" style="shape-rendering: crispedges;"/><rect x="165.4907894636455" y="225.3618419546829" width="6.745394731822767" height="6.745394731822767" fill="#bd93f9" style="shape-rendering: crispedges;"/><rect x="178.98157892729103" y="225.3618419546829" width="6.745394731822767" height="6.745394731822767" fill="#bd93f9" style="shape-rendering: crispedges;"/><rect x="185.72697365911378" y="225.3618419546829" width="6.745394731822767" height="6.745394731822767" fill="#bd93f9" style="shape-rendering: crispedges;"/><rect x="192.47236839093654" y="225.3618419546829" width="6.745394731822767" height="6.745394731822767" fill="#bd93f9" style="shape-rendering: crispedges;"/><rect x="199.2177631227593" y="225.3618419546829" width="6.745394731822767" height="6.745394731822767" fill="#bd93f9" style="shape-rendering: crispedges;"/><rect x="205.96315785458205" y="225.3618419546829" width="6.745394731822767" height="6.745394731822767" fill="#bd93f9" style="shape-rendering: crispedges;"/><rect x="212.7085525864048" y="225.3618419546829" width="6.745394731822767" height="6.745394731822767" fill="#bd93f9" style="shape-rendering: crispedges;"/><rect x="219.45394731822756" y="225.3618419546829" width="6.745394731822767" height="6.745394731822767" fill="#bd93f9" style="shape-rendering: crispedges;"/><rect x="226.19934205005032" y="225.3618419546829" width="6.745394731822767" height="6.745394731822767" fill="#bd93f9" style="shape-rendering: crispedges;"/><rect x="239.69013151369583" y="225.3618419546829" width="6.745394731822767" height="6.745394731822767" fill="#bd93f9" style="shape-rendering: crispedges;"/><rect x="253.18092097734134" y="225.3618419546829" width="6.745394731822767" height="6.745394731822767" fill="#bd93f9" style="shape-rendering: crispedges;"/><rect x="37.328289559012966" y="232.10723668650564" width="6.745394731822767" height="6.745394731822767" fill="#bd93f9" style="shape-rendering: crispedges;"/><rect x="50.8190790226585" y="232.10723668650564" width="6.745394731822767" height="6.745394731822767" fill="#bd93f9" style="shape-rendering: crispedges;"/><rect x="57.56447375448127" y="232.10723668650564" width="6.745394731822767" height="6.745394731822767" fill="#bd93f9" style="shape-rendering: crispedges;"/><rect x="64.30986848630404" y="232.10723668650564" width="6.745394731822767" height="6.745394731822767" fill="#bd93f9" style="shape-rendering: crispedges;"/><rect x="77.80065794994958" y="232.10723668650564" width="6.745394731822767" height="6.745394731822767" fill="#bd93f9" style="shape-rendering: crispedges;"/><rect x="91.29144741359512" y="232.10723668650564" width="6.745394731822767" height="6.745394731822767" fill="#bd93f9" style="shape-rendering: crispedges;"/><rect x="98.03684214541789" y="232.10723668650564" width="6.745394731822767" height="6.745394731822767" fill="#bd93f9" style="shape-rendering: crispedges;"/><rect x="111.52763160906343" y="232.10723668650564" width="6.745394731822767" height="6.745394731822767" fill="#bd93f9" style="shape-rendering: crispedges;"/><rect x="131.76381580453173" y="232.10723668650564" width="6.745394731822767" height="6.745394731822767" fill="#bd93f9" style="shape-rendering: crispedges;"/><rect x="138.5092105363545" y="232.10723668650564" width="6.745394731822767" height="6.745394731822767" fill="#bd93f9" style="shape-rendering: crispedges;"/><rect x="172.23618419546827" y="232.10723668650564" width="6.745394731822767" height="6.745394731822767" fill="#bd93f9" style="shape-rendering: crispedges;"/><rect x="178.98157892729103" y="232.10723668650564" width="6.745394731822767" height="6.745394731822767" fill="#bd93f9" style="shape-rendering: crispedges;"/><rect x="185.72697365911378" y="232.10723668650564" width="6.745394731822767" height="6.745394731822767" fill="#bd93f9" style="shape-rendering: crispedges;"/><rect x="192.47236839093654" y="232.10723668650564" width="6.745394731822767" height="6.745394731822767" fill="#bd93f9" style="shape-rendering: crispedges;"/><rect x="219.45394731822756" y="232.10723668650564" width="6.745394731822767" height="6.745394731822767" fill="#bd93f9" style="shape-rendering: crispedges;"/><rect x="232.94473678187308" y="232.10723668650564" width="6.745394731822767" height="6.745394731822767" fill="#bd93f9" style="shape-rendering: crispedges;"/><rect x="239.69013151369583" y="232.10723668650564" width="6.745394731822767" height="6.745394731822767" fill="#bd93f9" style="shape-rendering: crispedges;"/><rect x="253.18092097734134" y="232.10723668650564" width="6.745394731822767" height="6.745394731822767" fill="#bd93f9" style="shape-rendering: crispedges;"/><rect x="37.328289559012966" y="238.8526314183284" width="6.745394731822767" height="6.745394731822767" fill="#bd93f9" style="shape-rendering: crispedges;"/><rect x="50.8190790226585" y="238.8526314183284" width="6.745394731822767" height="6.745394731822767" fill="#bd93f9" style="shape-rendering: crispedges;"/><rect x="57.56447375448127" y="238.8526314183284" width="6.745394731822767" height="6.745394731822767" fill="#bd93f9" style="shape-rendering: crispedges;"/><rect x="64.30986848630404" y="238.8526314183284" width="6.745394731822767" height="6.745394731822767" fill="#bd93f9" style="shape-rendering: crispedges;"/><rect x="77.80065794994958" y="238.8526314183284" width="6.745394731822767" height="6.745394731822767" fill="#bd93f9" style="shape-rendering: crispedges;"/><rect x="91.29144741359512" y="238.8526314183284" width="6.745394731822767" height="6.745394731822767" fill="#bd93f9" style="shape-rendering: crispedges;"/><rect x="104.78223687724066" y="238.8526314183284" width="6.745394731822767" height="6.745394731822767" fill="#bd93f9" style="shape-rendering: crispedges;"/><rect x="118.2730263408862" y="238.8526314183284" width="6.745394731822767" height="6.745394731822767" fill="#bd93f9" style="shape-rendering: crispedges;"/><rect x="138.5092105363545" y="238.8526314183284" width="6.745394731822767" height="6.745394731822767" fill="#bd93f9" style="shape-rendering: crispedges;"/><rect x="152" y="238.8526314183284" width="6.745394731822767" height="6.745394731822767" fill="#bd93f9" style="shape-rendering: crispedges;"/><rect x="158.74539473182276" y="238.8526314183284" width="6.745394731822767" height="6.745394731822767" fill="#bd93f9" style="shape-rendering: crispedges;"/><rect x="185.72697365911378" y="238.8526314183284" width="6.745394731822767" height="6.745394731822767" fill="#bd93f9" style="shape-rendering: crispedges;"/><rect x="212.7085525864048" y="238.8526314183284" width="6.745394731822767" height="6.745394731822767" fill="#bd93f9" style="shape-rendering: crispedges;"/><rect x="219.45394731822756" y="238.8526314183284" width="6.745394731822767" height="6.745394731822767" fill="#bd93f9" style="shape-rendering: crispedges;"/><rect x="232.94473678187308" y="238.8526314183284" width="6.745394731822767" height="6.745394731822767" fill="#bd93f9" style="shape-rendering: crispedges;"/><rect x="37.328289559012966" y="245.59802615015116" width="6.745394731822767" height="6.745394731822767" fill="#bd93f9" style="shape-rendering: crispedges;"/><rect x="77.80065794994958" y="245.59802615015116" width="6.745394731822767" height="6.745394731822767" fill="#bd93f9" style="shape-rendering: crispedges;"/><rect x="104.78223687724066" y="245.59802615015116" width="6.745394731822767" height="6.745394731822767" fill="#bd93f9" style="shape-rendering: crispedges;"/><rect x="111.52763160906343" y="245.59802615015116" width="6.745394731822767" height="6.745394731822767" fill="#bd93f9" style="shape-rendering: crispedges;"/><rect x="118.2730263408862" y="245.59802615015116" width="6.745394731822767" height="6.745394731822767" fill="#bd93f9" style="shape-rendering: crispedges;"/><rect x="125.01842107270897" y="245.59802615015116" width="6.745394731822767" height="6.745394731822767" fill="#bd93f9" style="shape-rendering: crispedges;"/><rect x="131.76381580453173" y="245.59802615015116" width="6.745394731822767" height="6.745394731822767" fill="#bd93f9" style="shape-rendering: crispedges;"/><rect x="145.25460526817724" y="245.59802615015116" width="6.745394731822767" height="6.745394731822767" fill="#bd93f9" style="shape-rendering: crispedges;"/><rect x="152" y="245.59802615015116" width="6.745394731822767" height="6.745394731822767" fill="#bd93f9" style="shape-rendering: crispedges;"/><rect x="165.4907894636455" y="245.59802615015116" width="6.745394731822767" height="6.745394731822767" fill="#bd93f9" style="shape-rendering: crispedges;"/><rect x="172.23618419546827" y="245.59802615015116" width="6.745394731822767" height="6.745394731822767" fill="#bd93f9" style="shape-rendering: crispedges;"/><rect x="185.72697365911378" y="245.59802615015116" width="6.745394731822767" height="6.745394731822767" fill="#bd93f9" style="shape-rendering: crispedges;"/><rect x="199.2177631227593" y="245.59802615015116" width="6.745394731822767" height="6.745394731822767" fill="#bd93f9" style="shape-rendering: crispedges;"/><rect x="205.96315785458205" y="245.59802615015116" width="6.745394731822767" height="6.745394731822767" fill="#bd93f9" style="shape-rendering: crispedges;"/><rect x="219.45394731822756" y="245.59802615015116" width="6.745394731822767" height="6.745394731822767" fill="#bd93f9" style="shape-rendering: crispedges;"/><rect x="226.19934205005032" y="245.59802615015116" width="6.745394731822767" height="6.745394731822767" fill="#bd93f9" style="shape-rendering: crispedges;"/><rect x="253.18092097734134" y="245.59802615015116" width="6.745394731822767" height="6.745394731822767" fill="#bd93f9" style="shape-rendering: crispedges;"/><rect x="37.328289559012966" y="252.3434208819739" width="6.745394731822767" height="6.745394731822767" fill="#bd93f9" style="shape-rendering: crispedges;"/><rect x="44.07368429083573" y="252.3434208819739" width="6.745394731822767" height="6.745394731822767" fill="#bd93f9" style="shape-rendering: crispedges;"/><rect x="50.8190790226585" y="252.3434208819739" width="6.745394731822767" height="6.745394731822767" fill="#bd93f9" style="shape-rendering: crispedges;"/><rect x="57.56447375448127" y="252.3434208819739" width="6.745394731822767" height="6.745394731822767" fill="#bd93f9" style="shape-rendering: crispedges;"/><rect x="64.30986848630404" y="252.3434208819739" width="6.745394731822767" height="6.745394731822767" fill="#bd93f9" style="shape-rendering: crispedges;"/><rect x="71.05526321812681" y="252.3434208819739" width="6.745394731822767" height="6.745394731822767" fill="#bd93f9" style="shape-rendering: crispedges;"/><rect x="77.80065794994958" y="252.3434208819739" width="6.745394731822767" height="6.745394731822767" fill="#bd93f9" style="shape-rendering: crispedges;"/><rect x="91.29144741359512" y="252.3434208819739" width="6.745394731822767" height="6.745394731822767" fill="#bd93f9" style="shape-rendering: crispedges;"/><rect x="104.78223687724066" y="252.3434208819739" width="6.745394731822767" height="6.745394731822767" fill="#bd93f9" style="shape-rendering: crispedges;"/><rect x="111.52763160906343" y="252.3434208819739" width="6.745394731822767" height="6.745394731822767" fill="#bd93f9" style="shape-rendering: crispedges;"/><rect x="118.2730263408862" y="252.3434208819739" width="6.745394731822767" height="6.745394731822767" fill="#bd93f9" style="shape-rendering: crispedges;"/><rect x="125.01842107270897" y="252.3434208819739" width="6.745394731822767" height="6.745394731822767" fill="#bd93f9" style="shape-rendering: crispedges;"/><rect x="138.5092105363545" y="252.3434208819739" width="6.745394731822767" height="6.745394731822767" fill="#bd93f9" style="shape-rendering: crispedges;"/><rect x="145.25460526817724" y="252.3434208819739" width="6.745394731822767" height="6.745394731822767" fill="#bd93f9" style="shape-rendering: crispedges;"/><rect x="152" y="252.3434208819739" width="6.745394731822767" height="6.745394731822767" fill="#bd93f9" style="shape-rendering: crispedges;"/><rect x="158.74539473182276" y="252.3434208819739" width="6.745394731822767" height="6.745394731822767" fill="#bd93f9" style="shape-rendering: crispedges;"/><rect x="165.4907894636455" y="252.3434208819739" width="6.745394731822767" height="6.745394731822767" fill="#bd93f9" style="shape-rendering: crispedges;"/><rect x="178.98157892729103" y="252.3434208819739" width="6.745394731822767" height="6.745394731822767" fill="#bd93f9" style="shape-rendering: crispedges;"/><rect x="192.47236839093654" y="252.3434208819739" width="6.745394731822767" height="6.745394731822767" fill="#bd93f9" style="shape-rendering: crispedges;"/><rect x="226.19934205005032" y="252.3434208819739" width="6.745394731822767" height="6.745394731822767" fill="#bd93f9" style="shape-rendering: crispedges;"/><rect x="232.94473678187308" y="252.3434208819739" width="6.745394731822767" height="6.745394731822767" fill="#bd93f9" style="shape-rendering: crispedges;"/><rect x="239.69013151369583" y="252.3434208819739" width="6.745394731822767" height="6.745394731822767" fill="#bd93f9" style="shape-rendering: crispedges;"/></svg>